<svg width="32" height="32" viewBox="0 0 32 32" fill="none" xmlns="http://www.w3.org/2000/svg">
<path fill-rule="evenodd" clip-rule="evenodd" d="M16 27.2C22.1856 27.2 27.2 22.1856 27.2 16C27.2 9.81441 22.1856 4.8 16 4.8C9.81441 4.8 4.8 9.81441 4.8 16C4.8 22.1856 9.81441 27.2 16 27.2ZM16 32C24.8366 32 32 24.8366 32 16C32 7.16344 24.8366 0 16 0C7.16344 0 0 7.16344 0 16C0 24.8366 7.16344 32 16 32Z" fill="#4060BF"/>
<path d="M21.76 16C21.76 19.1812 19.1812 21.76 16 21.76C12.8188 21.76 10.24 19.1812 10.24 16C10.24 12.8188 12.8188 10.24 16 10.24C19.1812 10.24 21.76 12.8188 21.76 16Z" fill="#4060BF"/>
</svg>
